<svg width="380" height="149" viewBox="0 0 380 149" fill="none" xmlns="http://www.w3.org/2000/svg">
<path d="M0.4 120.6V98.6L65.8 4.99999H98.4V96.2H116V120.6H98.4V149H70.4V120.6H0.4ZM72.2 35L31.2 96.2H72.2V35ZM263.923 120.6V98.6L329.323 4.99999H361.923V96.2H379.523V120.6H361.923V149H333.923V120.6H263.923ZM335.723 35L294.723 96.2H335.723V35Z" fill="#FCD980"/>
<path d="M134.827 74.2C134.827 51.1333 138.96 33.0667 147.227 20C155.627 6.93333 169.493 0.399994 188.827 0.399994C208.16 0.399994 221.96 6.93333 230.227 20C238.627 33.0667 242.827 51.1333 242.827 74.2C242.827 97.4 238.627 115.6 230.227 128.8C221.96 142 208.16 148.6 188.827 148.6C169.493 148.6 155.627 142 147.227 128.8C138.96 115.6 134.827 97.4 134.827 74.2ZM215.227 74.2C215.227 64.3333 214.56 56.0667 213.227 49.4C212.027 42.6 209.493 37.0667 205.627 32.8C201.893 28.5333 196.293 26.4 188.827 26.4C181.36 26.4 175.693 28.5333 171.827 32.8C168.093 37.0667 165.56 42.6 164.227 49.4C163.027 56.0667 162.427 64.3333 162.427 74.2C162.427 84.3333 163.027 92.8667 164.227 99.8C165.427 106.6 167.96 112.133 171.827 116.4C175.693 120.533 181.36 122.6 188.827 122.6C196.293 122.6 201.96 120.533 205.827 116.4C209.693 112.133 212.227 106.6 213.427 99.8C214.627 92.8667 215.227 84.3333 215.227 74.2Z" fill="#232536"/>
</svg>
